<svg xmlns="http://www.w3.org/2000/svg" xml:space="preserve"  width="500" height="400" data-id="lg_shbMZyne4z4dwTnvck" data-version="1" viewBox="0 0 2000 147"><g data-padding="20"><g transform="translate(10 2.258)scale(.96928)"><rect width="508" height="62.15" x="321.984" y="-357.579" fill="none" rx="0" ry="0" transform="translate(516.86 397.37)"/><path fill="#556970" d="m868.814 52.056-1.43 2.47q-1.43-1.43-5.17-2.14-1.37-.28-3.57-.28t-4.65 1.05q-2.45 1.04-4.32 3.24-4.01 4.84-4.01 13.64t4.01 12.32q2.75 2.48 7.29 2.48t8.72-1.16l.27-13.09h3.03v14.85q-2.42 1.54-8.75 2.2-1.76.22-3.71.22t-4.59-.63-4.9-2.56q-5.11-4.34-5.11-14.46t4.84-15.65 12.48-5.53l1.76.11q3.47.33 5.31 1.27 1.84.93 2.5 1.65m34.27 35.59-3.63-10.17h-16.94l-3.52 10.17h-3.58l13.92-38.5h3.35l14.41 38.5Zm-12.27-34.32-7.37 21.4h15.02Zm.66-6.93q-1.92 0-3.3-.96-1.37-.96-1.37-3.11 0-2.14 1.37-3.41 1.38-1.26 3.3-1.26 1.93 0 3.27.99 1.35.99 1.35 3.08t-1.35 3.38q-1.34 1.29-3.27 1.29m-.03-7.2q-1.12 0-1.92.85t-.8 2.14q0 1.3.8 1.98.8.69 1.92.69 1.13 0 1.93-.82.8-.83.8-2.12t-.8-2.01q-.8-.71-1.93-.71m44.91 20.29q0 7.92-5.44 10.62l8.3 17.54h-4.01l-7.81-16.39q-1.98.33-4.35.33h-4.23v16.06h-3.74v-38.5h7.97q6.71 0 9.79 2.09 3.52 2.37 3.52 8.25m-13.58-7.31h-3.96v16.39h3.96q4.89 0 7.37-1.98 2.47-1.98 2.47-6.88 0-6.27-5.72-7.26-1.81-.27-4.12-.27m23.32 35.47v-38.5h9.9q11.55 0 15.07 9.68 1.32 3.52 1.32 9.27t-1.27 9.68q-1.26 3.93-3.57 6.13t-5.59 2.97q-3.27.77-7.34.77Zm9.62-35.47h-5.88v32.45h4.51q2.86 0 5.5-.5 8.8-1.54 8.8-16.33 0-8.31-3.85-12.27-3.36-3.35-9.08-3.35m45.87-2.05-.66 3.14q-4.23-.94-7.2-.94-10.67 0-10.67 6.49 0 2.48 1.56 3.8 1.57 1.32 3.96 2.17 2.4.85 5.15 1.54t5.11 1.84q5.56 2.75 5.56 8.42 0 5.66-4.24 8.58-3.63 2.53-9.57 2.53-7.37 0-12.43-3.36l1.43-2.8q1.49 1.04 4.24 1.95t5.33.91q5.06 0 7.98-1.65 3.52-2.04 3.52-5.83 0-2.81-1.57-4.38-1.57-1.56-3.96-2.53-2.39-.96-5.14-1.65-2.75-.68-5.12-1.73-5.55-2.42-5.55-7.2 0-4.79 3.3-7.59 3.3-2.81 9.35-2.81 4.67 0 9.62 1.1m29.43-.98-.28 3.3h-16v14.47h14.85l-.28 3.3h-14.57v17.43h-3.74v-38.5Zm22-.23q16.22 0 16.22 19.58 0 8.97-4.62 14.16-4.62 5.2-11.6 5.2-7.43 0-11.5-4.07-4.73-4.84-4.73-14.57 0-9.74 4.65-15.02t11.58-5.28m-8.8 32.23q3.02 3.41 8.8 3.41 5.44 0 8.96-4.32 3.52-4.31 3.52-12.4 0-8.08-3.68-12.15-3.08-3.47-8.8-3.47-5.39 0-8.94 4.35-3.55 4.34-3.55 12.45 0 8.12 3.69 12.13m2.88-34.76q-.96 0-1.51-.63t-.55-1.62.58-1.57 1.54-.58 1.54.58.58 1.65-.61 1.62q-.6.55-1.57.55m11.83 0q-.96 0-1.49-.63-.52-.63-.52-1.62t.55-1.57 1.49-.58q2.2 0 2.2 2.2 0 1.1-.64 1.65-.63.55-1.59.55m39.57 13.1q0 7.92-5.44 10.62l8.3 17.54h-4.01l-7.81-16.39q-1.98.33-4.35.33h-4.23v16.06h-3.74v-38.5h7.97q6.71 0 9.79 2.09 3.52 2.37 3.52 8.25m-13.58-7.31h-3.96v16.39h3.96q4.89 0 7.37-1.98 2.47-1.98 2.47-6.88 0-6.27-5.72-7.26-1.81-.27-4.12-.27m44.55-2.05-.66 3.14q-4.24-.94-7.21-.94-10.67 0-10.67 6.49 0 2.48 1.57 3.8t3.96 2.17 5.14 1.54 5.12 1.84q5.55 2.75 5.55 8.42 0 5.66-4.23 8.58-3.63 2.53-9.57 2.53-7.37 0-12.43-3.36l1.43-2.8q1.48 1.04 4.23 1.95t5.34.91q5.06 0 7.97-1.65 3.52-2.04 3.52-5.83 0-2.81-1.57-4.38-1.56-1.56-3.96-2.53-2.39-.96-5.14-1.65-2.75-.68-5.11-1.73-5.56-2.42-5.56-7.2 0-4.79 3.3-7.59 3.3-2.81 9.35-2.81 4.68 0 9.63 1.1m35.14 37.52-3.63-10.17h-16.94l-3.52 10.17h-3.57l13.91-38.5h3.36l14.41 38.5Zm-12.26-34.32-7.37 21.4h15.01Zm-5.42-6.93q-.96 0-1.51-.63t-.55-1.62.57-1.57q.58-.58 1.54-.58.97 0 1.54.58.58.58.58 1.65t-.6 1.62q-.61.55-1.57.55m11.82 0q-.96 0-1.48-.63t-.52-1.62.55-1.57 1.48-.58q2.2 0 2.2 2.2 0 1.1-.63 1.65t-1.6.55m38.97 37.95-.27 3.3h-20.85v-38.5h3.74v35.2Zm2.52 16.94-1.81-2.14q3.79-3.58 5.39-8.03.6-1.71.6-3.47v-38.5h3.74v38.83q0 6.05-5.61 11.22-1.37 1.27-2.31 2.09m45.5-13.64h-4.02l-21.94-33.55.27 33.55h-3.46v-38.5h4.01l21.89 33.55-.22-33.55h3.47Zm18.2-2.64v2.64h-10.34v-2.64l3.3-.38v-32.4l-3.02-.38v-2.7h9.79v2.7l-3.03.38v32.4Zm38.06 2.64h-4.01l-21.95-33.55.28 33.55h-3.47v-38.5h4.02l21.89 33.55-.22-33.55h3.46Zm34.49-35.59-1.43 2.47q-1.43-1.43-5.17-2.14-1.38-.28-3.58-.28t-4.65 1.05q-2.44 1.04-4.31 3.24-4.02 4.84-4.02 13.64t4.02 12.32q2.75 2.48 7.28 2.48 4.54 0 8.72-1.16l.28-13.09h3.02v14.85q-2.42 1.54-8.74 2.2-1.76.22-3.72.22-1.95 0-4.59-.63t-4.89-2.56q-5.12-4.34-5.12-14.46t4.84-15.65 12.49-5.53l1.76.11q3.46.33 5.3 1.27 1.85.93 2.51 1.65M752.904-.174c-31.414 0-56.99 25.576-56.99 56.99 0 30.914 53.71 87.514 55.99 89.933a1.39 1.39 0 0 0 2 0c2.28-2.419 55.99-59.02 55.99-89.933 0-31.414-25.576-56.99-56.99-56.99m0 143.92c-7.506-8.06-54.21-59.38-54.21-86.93 0-29.885 24.325-54.21 54.21-54.21s54.21 24.325 54.21 54.21c0 27.522-46.704 78.87-54.21 86.93"/><path fill="#556970" d="M761.688 44.61c-2.242-1.382-3.61-2.284-3.61-3.51V24.673l-.24-.325c-.24-.31-1.606-1.833-5.88-1.833-4.821 0-6.062 1.495-6.33 1.96l-.17.282v16.356c0 1.227-1.268 2.143-3.34 3.525-3.243 2.157-7.7 5.118-7.7 12.38 0 .846.65 7.332 1.735 17.907.903 8.94 1.946 19.063 1.946 20.078 0 3.356 14.312 3.638 14.467 3.638s14.142-.225 14.142-3.638c0-1.029.916-11.139 1.734-20.078.959-10.575 1.55-17.06 1.55-17.907 0-7.29-4.793-10.25-8.304-12.408m-5.992-19.345c-1.044.31-2.37.564-3.694.564-1.44 0-3.004-.339-4.16-.705a11.3 11.3 0 0 1 4.033-.677c1.734 0 2.947.367 3.82.818M766.003 74.7a1153 1153 0 0 0-1.72 19.81c-1.312.65-6.5 1.68-11.717 1.68-4.766 0-10.575-1.002-12.042-1.693-.14-2.115-.874-9.39-1.946-19.825-.803-7.896-1.72-16.878-1.72-17.653 0-5.95 3.525-8.29 6.627-10.35 2.27-1.508 4.428-2.96 4.428-5.569V27.436c1.353.41 3.116.494 4.13.494 1.044 0 2.426-.07 3.582-.339V41.1c0 2.65 2.327 4.09 4.78 5.598 3.342 2.058 7.135 4.4 7.135 10.321 0 .79-.818 9.771-1.537 17.681"/><path fill="#556970" d="M761.589 53.93h-18.81a1.227 1.227 0 0 0-1.212 1.213v11.435c0 .677.55 1.227 1.226 1.227h18.782c.676 0 1.226-.55 1.226-1.227V55.156a1.227 1.227 0 0 0-1.226-1.227m-1.227 11.421h-16.342v-8.982h16.356Z"/></g><path fill="transparent" stroke="transparent" d="M674.5 0h651v147h-651z"/></g></svg>